<?xml version="1.0" encoding="UTF-8"?>
<svg width="410.67" height="345.33" version="1.1" viewBox="0 0 410.67 345.33" xml:space="preserve" xmlns="http://www.w3.org/2000/svg" xmlns:cc="http://creativecommons.org/ns#" xmlns:dc="http://purl.org/dc/elements/1.1/" xmlns:rdf="http://www.w3.org/1999/02/22-rdf-syntax-ns#"><metadata><rdf:RDF><cc:Work rdf:about=""><dc:format>image/svg+xml</dc:format><dc:type rdf:resource="http://purl.org/dc/dcmitype/StillImage"/><dc:title/></cc:Work></rdf:RDF></metadata><defs><clipPath id="clipPath28"><path d="m0 0h3074.1v2582.1h-3074.1z"/></clipPath></defs><g transform="matrix(1.3333 0 0 -1.3333 0 345.33)"><g transform="scale(.1)"><g clip-path="url(#clipPath28)"><g fill="#231f20"><path d="m163.85 1913.6c-9.91-44.62-18.582-86.74-18.582-102.86 0-32.22 28.496-39.66 53.281-39.66 21.07 0 47.09 16.12 64.441 27.27 55.774 35.94 81.785 104.1 96.66 166.06l63.204 265.2h128.88l-83.031-363.1c-8.672-37.17-13.633-65.68-12.39-74.35 1.242-12.39 13.632-19.84 24.785-19.84 44.621 0 99.148 102.86 115.25 138.8l27.265-14.87c-32.21-83.03-100.38-175.97-195.79-175.97-74.356 0-94.192 47.09-92.95 118.97-53.281-66.93-116.48-118.97-203.23-118.97-58.242 0-110.29 19.83-110.29 89.22 0 17.36 7.4297 57.01 16.113 96.66l63.192 292.46h-97.903l8.6836 30.99h114c38.418 0 75.593 4.95 114.01 4.95l-75.593-320.96"/><path d="m728.72 2285.1c55.972 0 87.754 39.37 87.754 96.77 0 38.91-17.539 61.21-46.016 61.21-13.281 0-42.695-9.02-45.527-27.05l-18.516-130.93zm1.422 170.31 0.941-0.95c17.559 17.55 31.797 23.72 51.719 23.72 44.59 0 74.937-39.85 74.937-97.25 0-56.92-31.304-129.04-138.51-129.04-20.39 0-44.125 1.43-56.449 3.33l44.121 326.85h41.274l-18.031-126.66"/><path d="m5.7812 1192h2571.5v25.508h-2571.5z"/><path d="m32.824 1005.1c18.875 0 29.598 13.28 29.598 32.64 0 13.12-5.918 20.64-15.516 20.64-4.4844 0-14.406-3.04-15.363-9.12l-6.2422-44.16zm0.4766 57.44 0.3203-0.31c5.918 5.91 10.715 7.99 17.445 7.99 15.035 0 25.273-13.44 25.273-32.8 0-19.2-10.558-43.51-46.723-43.51-6.875 0-14.883 0.469-19.039 1.11l14.883 110.24h13.926l-6.0859-42.72"/><path d="m112.5 838.54c0-30.559-19.844-44.32-48.957-44.32-29.121 0-48.961 13.761-48.961 44.32v69.281h29.754v-64.308c0-14.731 4.0039-27.211 19.207-27.211 15.195 0 19.199 12.48 19.199 27.211v64.308h29.758v-69.281"/><path d="m152.41 907.82h37.922l37.754-75.84h0.32l-0.476 75.84h27.195v-111.68h-36.953l-39.043 76.32h-0.32l0.965-76.32h-27.364v111.68"/><path d="m299.49 796.14h29.754v111.68h-29.754z"/><path d="m359.97 907.82h31.675l24.805-87.672h0.324l24.953 87.672h30.567l-38.086-111.68h-36.801l-37.437 111.68"/><path d="m502.41 907.82h78.735v-21.121h-48.965v-23.039h46.226v-21.121h-46.226v-25.269h50.718v-21.129h-80.488v111.68"/><path d="m649.46 861.43h7.832c9.59 0 21.758 0.308 21.758 12.949 0 10.402-10.395 12.32-21.758 12.32h-7.832zm-29.77 46.39h53.125c19.825 0 35.996-8.961 35.996-28.16 0-14.879-7.046-24.801-21.445-28.16v-0.32c9.609-2.559 10.234-11.032 15.844-24.641l10.879-30.398h-31.035l-6.411 20.16c-6.074 19.199-9.918 24-20.957 24h-6.226v-44.16h-29.77v111.68"/><path d="m747.77 823.66c7.675-4.16 18.398-7.359 30.703-7.359 9.453 0 18.418 1.918 18.418 10.879 0 20.8-52.813 7.679-52.813 48.32 0 26.879 26.25 34.25 48.652 34.25 10.704 0 21.27-1.609 28.79-4.16l-1.915-23.051c-7.675 3.52-16.328 5.133-24.804 5.133-7.52 0-20-0.652-20-10.402 0-18.09 52.793-5.93 52.793-46.25 0-28.961-24.317-36.801-49.121-36.801-10.391 0-23.36 1.601-33.262 4.801l2.559 24.64"/><path d="m865.46 796.14h29.738v111.68h-29.738z"/><path d="m950.48 885.74h-27.519v22.082h84.779v-22.082h-27.513v-89.597h-29.747v89.597"/><path d="m1088.6 936.78h23.05v-23.043h-23.05zm-7.2-52h-0.32l-14.39-43.679h27.99zm-29.28 52h23.05v-23.043h-23.05zm11.05-28.961h36.47l43.05-111.68h-32.64l-8.32 23.839h-41.92l-8.8-23.839h-30.24l42.4 111.68"/><path d="m1183.7 885.74h-27.52v22.082h84.81v-22.082h-27.52v-89.597h-29.77v89.597"/><path d="m45.137 617.27h8.7969c10.891 0 22.246 1.601 22.246 12.949 0 12.16-11.676 13.293-21.922 13.293h-9.1211zm0 46.39h8.3203c9.7657 0 19.844 2.399 19.844 11.84 0 10.238-9.5977 11.199-19.52 11.199h-8.6446zm-29.754 44.16h51.356c20.801 0 36.321-9.121 36.321-28.32 0-14.078-7.1996-21.918-19.68-26.078v-0.32c14.883-3.043 22.559-11.043 22.559-24.633 0-26.731-23.516-32.328-43.516-32.328h-47.039v111.68"/><path d="m139.5 707.82h78.723v-21.121h-48.965v-23.039h46.238v-21.121h-46.238v-25.269h50.723v-21.129h-80.481v111.68"/><path d="m288.66 661.43h7.832c9.602 0 21.77 0.308 21.77 12.949 0 10.402-10.403 12.32-21.77 12.32h-7.832zm-29.765 46.39h53.125c19.835 0 36-8.961 36-28.16 0-14.879-7.043-24.801-21.438-28.16v-0.32c9.602-2.559 10.234-11.032 15.84-24.641l10.879-30.398h-31.043l-6.399 20.16c-6.086 19.199-9.921 24-20.957 24h-6.242v-44.16h-29.765v111.68"/><path d="m386.42 707.82h37.918l37.766-75.84h0.308l-0.476 75.84h27.199v-111.68h-36.953l-39.043 76.32h-0.324l0.964-76.32h-27.359v111.68"/></g><g fill="#f36917"><path d="m55.84 291.93h-0.3203l-16.16-46.078h32.637zm-12.32 22.41h25.277l43.84-111.68h-24.801l-9.5976 25.602h-45.277l-9.7617-25.602h-23.199l43.52 111.68"/><path d="m172.48 266.65h7.363c11.039 0 23.676 1.614 23.676 15.524 0 13.437-12.481 14.558-23.676 14.558h-7.363zm-22.399 47.692h24.16c24 0 52.637 0.801 52.637-30.238 0-13.122-8.801-24-23.035-25.93v-0.313c6.078-0.48 9.598-6.57 11.84-11.519l17.918-43.68h-24.961l-13.442 34.871c-3.199 8.321-6.078 11.528-15.515 11.528h-7.203v-46.399h-22.399v111.68"/><path d="m292.19 296.73h-32v17.61h86.398v-17.61h-32v-94.07h-22.398v94.07"/><path d="m435.06 218.33c22.875 0 31.359 20.328 31.359 40.477 0 19.691-9.121 39.851-31.359 39.851-22.243 0-31.364-20.16-31.364-39.851 0-20.149 8.485-40.477 31.364-40.477zm0 97.918c35.039 0 54.718-23.68 54.718-57.441 0-33.758-19.359-58.071-54.718-58.071-35.84 0-54.719 23.832-54.719 58.071 0 34.25 19.199 57.441 54.719 57.441"/><path d="m555.7 266.65h7.363c11.039 0 23.676 1.614 23.676 15.524 0 13.437-12.48 14.558-23.676 14.558h-7.363zm-22.398 47.692h24.16c24 0 52.637 0.801 52.637-30.238 0-13.122-8.797-24-23.036-25.93v-0.313c6.079-0.48 9.598-6.57 11.84-11.519l17.918-43.68h-24.961l-13.441 34.871c-3.195 8.321-6.078 11.528-15.516 11.528h-7.203v-46.399h-22.398v111.68"/><path d="m745.14 292.73c-8.641 4-19.84 5.93-28.801 5.93-26.078 0-40.481-17.609-40.481-40.488 0-22.723 14.082-39.84 37.922-39.84 6.078 0 10.879 0.637 14.723 1.609v29.118h-23.684v17.589h45.121v-60.16c-11.84-3.187-24.16-5.75-36.16-5.75-36.156 0-61.281 18.082-61.281 55.844 0 38.227 23.359 59.668 61.281 59.668 12.957 0 23.195-1.75 32.797-4.629l-1.437-18.891"/><path d="m949.14 204.26c-8.161-1.93-16.957-3.524-25.442-3.524-36.156 0-61.277 18.082-61.277 55.844 0 38.227 23.359 59.668 61.277 59.668 7.36 0 17.121-1.441 25.281-4.629l-1.597-18.891c-8.481 4.801-16.16 5.93-24.16 5.93-23.043 0-37.442-17.609-37.442-40.488 0-22.723 14.082-39.84 37.918-39.84 8.801 0 19.199 1.918 24.481 4.637l0.961-18.707"/><path d="m990.57 314.34h65.916v-17.61h-43.51v-27.519h39.84v-17.59h-39.84v-31.371h43.84v-17.59h-66.246v111.68"/><path d="m1103.4 314.34h27.52l42.56-83.531h0.32v83.531h21.43v-111.68h-27.35l-42.72 83.52h-0.32v-83.52h-21.44v111.68"/><path d="m1265.3 296.73h-32v17.61h86.4v-17.61h-31.99v-94.07h-22.41v94.07"/><path d="m1358.9 314.34h65.91v-17.61h-43.51v-27.519h39.83v-17.59h-39.83v-31.371h43.84v-17.59h-66.24v111.68"/><path d="m1493.3 266.65h7.36c11.04 0 23.69 1.614 23.69 15.524 0 13.437-12.48 14.558-23.69 14.558h-7.36zm-22.4 47.692h24.16c24 0 52.65 0.801 52.65-30.238 0-13.122-8.8-24-23.05-25.93v-0.313c6.08-0.48 9.6-6.57 11.84-11.519l17.92-43.68h-24.96l-13.43 34.871c-3.21 8.321-6.09 11.528-15.53 11.528h-7.2v-46.399h-22.4v111.68"/><path d="m30.473 15.039h12.004c14.398 0 27.359 3.0429 27.359 18.082 0 17.277-15.203 19.68-28.961 19.68h-10.402zm0 50.883h8.8046c15.516 0 28.637 1.4375 28.637 17.918 0 13.281-11.356 16.64-20.637 16.64h-16.805zm-15.996 47.68h30.242c23.195 0 39.195-7.52 39.195-28.161 0-15.359-8.9571-23.043-23.039-26.562v-0.3203c15.199-1.2773 25.922-11.199 25.922-26.879 0-24-19.844-29.758-42.562-29.758h-29.758v111.68"/><path d="m120.72 1.9219h16v111.68h-16z"/><path d="m220.72 14.082c25.758 0 36.797 21.438 36.797 43.68 0 22.719-12.161 43.84-36.797 43.668-24.645 0.172-36.805-20.95-36.805-43.668 0-22.242 11.043-43.68 36.805-43.68zm0 101.44c33.914 0 53.754-24.641 53.754-57.758 0-33.922-19.676-57.762-53.754-57.762-34.082 0-53.762 23.84-53.762 57.762 0 33.117 19.84 57.758 53.762 57.758"/><path d="m304.87 113.6h26.402l35.04-92.801 34.402 92.801h26.394v-111.68h-15.996v96.637h-0.32l-36.961-96.637h-15.68l-36.961 96.637h-0.316v-96.637h-16.004v111.68"/><path d="m464.07 113.6h62.563v-14.082h-46.559v-32.641h42.399v-14.078h-42.399v-36.801h46.559v-14.078h-62.563v111.68"/><path d="m574.79 16h16.805c27.515 0 42.719 13.281 42.719 42.082 0 26.078-17.758 41.438-40.801 41.438h-18.723zm-15.996 97.602h32.961c33.117 0 59.516-20.481 59.516-54.883 0-37.438-22.719-56.797-59.516-56.797h-32.961v111.68"/><path d="m682.79 1.9219h16v111.68h-16z"/><path d="m811.91 95.199c-7.039 4.1524-14.879 6.2308-23.039 6.2308-25.762 0-42.879-18.551-42.879-43.668 0-26.242 18.879-43.68 42.078-43.68 8 0 18.723 2.0782 24.325 5.4375l0.957-15.52c-8.481-3.5195-18.879-4-25.442-4-35.359 0-58.879 22.719-58.879 58.238 0 34.402 24.957 57.282 59.039 57.282 8.641 0 17.121-1.282 25.118-4.801l-1.278-15.52"/><path d="m883.27 98.559-22.239-55.359h44.477zm-7.84 15.043h16.8l47.2-111.68h-17.442l-11.359 28.16h-54.723l-11.355-28.16h-16.801l47.68 111.68"/><path d="m962.95 113.6h15.996v-97.602h46.715v-14.078h-62.711v111.68"/><path d="m1103.4 113.6h62.56v-14.082h-46.56v-32.641h42.4v-14.078h-42.4v-36.801h46.56v-14.078h-62.56v111.68"/><path d="m1199 113.6h21.75l49.29-89.922h0.31v89.922h16.01v-111.68h-20.48l-50.57 91.84h-0.31v-91.84h-16v111.68"/><path d="m1406.9 93.762c-7.84 5.1172-16.32 7.6683-30.72 7.6683-25.76 0-42.88-18.711-42.88-43.668 0-26.242 18.88-43.68 42.08-43.68 11.04 0 13.92 1.1172 17.92 1.918v33.922h-23.52v13.117h39.52v-58.078c-6.08-2.082-16.64-4.9609-34.08-4.9609-35.36 0-58.88 22.719-58.88 58.238 0 34.402 24.96 57.282 59.04 57.282 16.32 0 23.52-2.411 32.8-5.598l-1.28-16.16"/><path d="m1445.2 1.9219h16v111.68h-16z"/><path d="m1497 113.6h21.76l49.28-89.922h0.32v89.922h16v-111.68h-20.48l-50.56 91.84h-0.32v-91.84h-16v111.68"/><path d="m1621 113.6h62.55v-14.082h-46.56v-32.641h42.4v-14.078h-42.4v-36.801h46.56v-14.078h-62.55v111.68"/><path d="m1717.5 113.6h62.56v-14.082h-46.56v-32.641h42.4v-14.078h-42.4v-36.801h46.56v-14.078h-62.56v111.68"/><path d="m1828.2 65.602h13.61c15.19 0 24.16 6.7187 24.16 17.438 0 10.082-7.69 16.48-22.41 16.48h-15.36zm-15.99 48h27.35c22.08 0 43.36-3.52 43.36-30.243 0-13.598-10.08-23.199-23.04-25.438v-0.3203c4.96-1.9219 7.37-4.3203 10.88-11.203l21.12-44.477h-18.24l-17.12 38.719c-4.96 10.879-10.23 10.879-18.72 10.879h-9.6v-49.598h-15.99v111.68"/><path d="m1918.5 1.9219h16v111.68h-16z"/><path d="m1970.3 113.6h21.76l49.28-89.922h0.32v89.922h16v-111.68h-20.48l-50.56 91.84h-0.32v-91.84h-16v111.68"/><path d="m2178.3 93.762c-7.84 5.1172-16.33 7.6683-30.72 7.6683-25.76 0-42.88-18.711-42.88-43.668 0-26.242 18.87-43.68 42.08-43.68 11.03 0 13.91 1.1172 17.92 1.918v33.922h-23.52v13.117h39.51v-58.078c-6.07-2.082-16.64-4.9609-34.07-4.9609-35.36 0-58.89 22.719-58.89 58.238 0 34.402 24.97 57.282 59.05 57.282 16.32 0 23.51-2.411 32.8-5.598l-1.28-16.16"/><path d="m2283.6 65.602h13.61c15.19 0 24.16 6.7187 24.16 17.438 0 10.082-7.69 16.48-22.4 16.48h-15.37zm-15.99 48h27.35c22.08 0 43.36-3.52 43.36-30.243 0-13.598-10.08-23.199-23.04-25.438v-0.3203c4.96-1.9219 7.37-4.3203 10.88-11.203l21.13-44.477h-18.25l-17.12 38.719c-4.96 10.879-10.23 10.879-18.72 10.879h-9.6v-49.598h-15.99v111.68"/><path d="m2374.6 113.6h62.56v-14.082h-46.56v-32.641h42.4v-14.078h-42.4v-36.801h46.56v-14.078h-62.56v111.68"/><path d="m2521 96.801c-8.17 3.1992-12.65 4.6292-20.96 4.6292-8.97 0-19.52-3.1917-19.52-14.871 0-21.438 48-16.477 48-53.277 0-23.84-18.4-33.281-40.81-33.281-7.84 0-15.51 2.2422-22.88 4.6406l1.61 14.879c5.43-2.2382 15.03-5.4375 23.2-5.4375 9.11 0 21.91 5.1172 21.91 18.238 0 24.961-48 18.078-48 52.801 0 19.84 15.69 30.399 35.84 30.399 7.37 0 16.17-1.282 23.84-4l-2.23-14.719"/><path d="m2558.6 113.6h62.56v-14.082h-46.56v-32.641h42.4v-14.078h-42.4v-36.801h46.56v-14.078h-62.56v111.68"/><path d="m2697.5 98.559-22.25-55.359h44.49zm-7.84 15.043h16.8l47.19-111.68h-17.43l-11.37 28.16h-54.71l-11.36-28.16h-16.8l47.68 111.68"/><path d="m2792.4 65.602h13.61c15.19 0 24.16 6.7187 24.16 17.438 0 10.082-7.69 16.48-22.41 16.48h-15.36zm-15.99 48h27.35c22.08 0 43.36-3.52 43.36-30.243 0-13.598-10.08-23.199-23.04-25.438v-0.3203c4.96-1.9219 7.37-4.3203 10.88-11.203l21.12-44.477h-18.24l-17.12 38.719c-4.96 10.879-10.23 10.879-18.72 10.879h-9.6v-49.598h-15.99v111.68"/><path d="m2959.7 95.199c-7.04 4.1524-14.89 6.2308-23.04 6.2308-25.76 0-42.88-18.551-42.88-43.668 0-26.242 18.88-43.68 42.08-43.68 8 0 18.72 2.0782 24.32 5.4375l0.96-15.52c-8.48-3.5195-18.88-4-25.44-4-35.36 0-58.88 22.719-58.88 58.238 0 34.402 24.96 57.282 59.04 57.282 8.64 0 17.12-1.282 25.12-4.801l-1.28-15.52"/><path d="m2988.7 113.6h16v-46.723h53.45v46.723h15.99v-111.68h-15.99v50.879h-53.45v-50.879h-16v111.68"/></g></g></g></g></svg>
